<?xml version="1.0" encoding="UTF-8" standalone="no"?>
<!-- Created with Inkscape (http://www.inkscape.org/) -->

<svg
   width="81.403786mm"
   height="81.946976mm"
   viewBox="0 0 81.403786 81.946976"
   version="1.1"
   id="svg1"
   xmlns:inkscape="http://www.inkscape.org/namespaces/inkscape"
   xmlns:sodipodi="http://sodipodi.sourceforge.net/DTD/sodipodi-0.dtd"
   xmlns="http://www.w3.org/2000/svg"
   xmlns:svg="http://www.w3.org/2000/svg">
  <sodipodi:namedview
     id="namedview1"
     pagecolor="#ffffff"
     bordercolor="#000000"
     borderopacity="0.25"
     inkscape:showpageshadow="2"
     inkscape:pageopacity="0.0"
     inkscape:pagecheckerboard="0"
     inkscape:deskcolor="#d1d1d1"
     inkscape:document-units="mm">
    <inkscape:page
       x="-9.9525194e-38"
       y="0"
       width="81.403786"
       height="81.946976"
       id="page2"
       margin="0"
       bleed="0" />
  </sodipodi:namedview>
  <defs
     id="defs1" />
  <g
     inkscape:label="Capa 1"
     inkscape:groupmode="layer"
     id="layer1"
     transform="translate(-57.918975,-122.57953)">
    <path
       style="opacity:1;fill:#0000ff;fill-opacity:1;stroke:#000000;stroke-width:0.580864;stroke-linecap:round;stroke-dasharray:none"
       d="m 371.04106,464.29342 c -39.83777,0.29265 -79.1335,17.21431 -106.92205,45.72357 -30.40465,30.64751 -46.71333,74.57385 -43.892,117.63237 2.13337,36.7283 17.97508,72.46995 43.92332,98.57917 13.08858,13.40674 28.69664,24.3785 45.67737,32.20387 1.8196,1.45926 4.24727,1.52287 6.26031,2.58737 15.28191,6.19703 31.63724,9.69407 48.07299,10.74863 12.92519,0.10461 25.97624,0.11355 38.64933,-2.78729 43.44225,-8.59719 82.28983,-37.30195 103.50744,-76.14179 10.30848,-18.74716 16.66913,-39.67362 18.63499,-60.96883 0.46033,-11.23162 0.74461,-22.55738 -0.64961,-33.73436 -3.93252,-29.11033 -16.02961,-57.13597 -35.10109,-79.53707 -26.34243,-31.40067 -65.73268,-51.48587 -106.67702,-53.99578 -3.8223,-0.24834 -7.65384,-0.3511 -11.48398,-0.30986 z m 2.70011,11.12023 c 39.85338,-0.22727 79.20214,18.05029 105.34684,48.09925 21.87269,24.95062 34.88506,57.66341 35.49801,90.83063 0.97079,31.13613 -8.68947,62.43371 -26.97435,87.7215 -7.13633,10.07729 -15.90641,18.87993 -25.23795,26.9366 -23.37961,19.27586 -53.1494,30.56312 -83.45413,31.86853 -15.05317,0.79073 -30.34562,-1.14585 -44.84546,-5.26106 -32.43958,-9.08396 -61.20954,-30.31561 -79.60791,-58.47728 -16.44562,-24.79871 -24.68883,-54.81075 -23.51534,-84.4458 1.28906,-41.16482 21.53637,-81.39732 54.02668,-106.85148 21.76205,-17.35337 48.98729,-27.95947 76.56227,-30.10685 4.06809,-0.22306 8.11682,-0.30071 12.20134,-0.31404 z"
       id="path7"
       transform="scale(0.26458333)" />
    <path
       id="path5"
       style="opacity:1;fill:none;stroke:#000000;stroke-width:0.423333;stroke-linecap:round;stroke-dasharray:none"
       d="m 82.192055,200.79836 a 40.480721,40.752403 0 0 1 -20.609621,-53.69049 40.480721,40.752403 0 0 1 53.280446,-20.88319 40.480721,40.752403 0 0 1 20.87818,53.58523 40.480721,40.752403 0 0 1 -53.175212,21.15328" />
    <path
       id="path6"
       style="opacity:1;fill:none;stroke:#000000;stroke-width:0.423333;stroke-linecap:round;stroke-dasharray:none"
       d="m 83.392645,198.07653 a 37.522459,37.774287 0 0 1 -19.103505,-49.76688 37.522459,37.774287 0 0 1 49.3868,-19.35708 37.522459,37.774287 0 0 1 19.35244,49.66931 37.522459,37.774287 0 0 1 -49.289258,19.60744" />
    <path
       id="path8"
       style="opacity:0.752304;fill:none;stroke:#000080;stroke-width:0.409439;stroke-linecap:round;stroke-dasharray:none"
       d="M 82.731253,199.57596 A 39.152133,39.414898 0 0 1 62.798045,147.6476 39.152133,39.414898 0 0 1 114.32981,127.44981 39.152133,39.414898 0 0 1 134.52277,179.27635 39.152133,39.414898 0 0 1 83.092778,199.73538" />
  </g>
</svg>
