<?xml version='1.0' encoding='utf-8'?>
<svg xmlns="http://www.w3.org/2000/svg" enable-background="new 0 0 20 20" version="1.1" viewBox="0 0 20 20"> <path d="m17.499 14.789c0.021 0.339 0.038 0.588 0.034 0.913-2e-3 0.423-0.094 0.547-0.279 0.664-1.083 0.691-3.105 1.932-4.293 2.614-0.561 0.322-2.404 1.202-5.17 0.32-2.764-0.881-3.803-1.268-4.768-1.644-0.367-0.142-0.624-0.32-0.581-1.096 0.026-0.483 0.021-0.932 0.17-1.025 0.437-0.276 0.82 0.315 1.312 0.479 0.595 0.198 5.71 1.924 6.794 1.563 1.081-0.36 6.781-2.788 6.781-2.788z" fill="#FF7400"/> <path d="m14.726 13.69c0.891 0.285 2.946 0.618 2.764 1.203-1.073 0.764-2.276 1.457-3.513 2.205-0.744 0.454-2.217 1.16-4.061 1.2-1.843 0.04-5.531-1.443-6.251-1.684-0.722-0.24-1.882-0.996-0.36-1.561 1.116-0.418 1.748-0.658 2.243-0.868 0.709-0.3 9.178-0.495 9.178-0.495z" fill="#FF5A00"/> <path d="m8.922 0h1.503c0.153 1 4.179 13.078 4.66 14.561 0.12 0.719-1.964 2.204-4.649 2.27-1.603 0.041-4.368-0.279-5.25-1.522 0.321-1.645 3.736-15.309 3.736-15.309z" fill="#FF7400"/> <path d="m6.547 9.484c0.618 0.685 5.559 0.726 6.887-0.01 0.26 0.802 0.703 2.14 0.983 3.06-1.513 1.042-7.923 0.861-8.573-0.065 0.361-1.644 0.703-2.985 0.703-2.985z" fill="#fff"/> <path d="m8.094 3.266c0.733 0.176 2.49 0.202 3.313 0.031 0.222 0.684 0.723 2.164 1.047 3.234-1.214 0.314-3.661 0.293-5.156-0.047 0.406-1.656 0.796-3.218 0.796-3.218z" fill="#fff"/> </svg>